HIERARCHY
ROOT Hips
{
	OFFSET	0.00	0.00	0.00
	CHANNELS 6 Xposition Yposition Zposition Zrotation Xrotation Yrotation
	JOINT LeftUpLeg
	{
		OFFSET	 0.126116	-0.014019	-0.065224
		CHANNELS 3 Zrotation Xrotation Yrotation
		JOINT LeftLeg
		{
			OFFSET	 0.000000	 0.000000	 0.569914
			CHANNELS 3 Zrotation Xrotation Yrotation
			JOINT LeftFoot
			{
				OFFSET	 0.000000	 0.000000	 0.544423
				CHANNELS 3 Zrotation Xrotation Yrotation
				JOINT LeftToeBase
				{
					OFFSET	 0.000000	 0.000000	 0.207117
					CHANNELS 3 Zrotation Xrotation Yrotation
					End Site
					{
						OFFSET	 0.000000	 0.000000	 0.207117
					}
				}
			}
		}
	}
	JOINT RightUpLeg
	{
		OFFSET	-0.124023	-0.008373	-0.065224
		CHANNELS 3 Zrotation Xrotation Yrotation
		JOINT RightLeg
		{
			OFFSET	 0.000000	 0.000000	 0.570047
			CHANNELS 3 Zrotation Xrotation Yrotation
			JOINT RightFoot
			{
				OFFSET	 0.000000	 0.000000	 0.544354
				CHANNELS 3 Zrotation Xrotation Yrotation
				JOINT RightToeBase
				{
					OFFSET	 0.000000	 0.000000	 0.207540
					CHANNELS 3 Zrotation Xrotation Yrotation
					End Site
					{
						OFFSET	 0.000000	 0.000000	 0.207540
					}
				}
			}
		}
	}
	JOINT Spine
	{
		OFFSET	 0.000184	-0.007763	 0.117403
		CHANNELS 3 Zrotation Xrotation Yrotation
		JOINT Spine1
		{
			OFFSET	 0.000000	 0.000000	 0.137269
			CHANNELS 3 Zrotation Xrotation Yrotation
			JOINT Spine2
			{
				OFFSET	 0.000000	 0.000000	 0.156879
				CHANNELS 3 Zrotation Xrotation Yrotation
				JOINT LeftShoulder
				{
					OFFSET	 0.080501	-0.002496	 0.160144
					CHANNELS 3 Zrotation Xrotation Yrotation
					JOINT LeftArm
					{
						OFFSET	 0.000000	 0.000000	 0.164363
						CHANNELS 3 Zrotation Xrotation Yrotation
						JOINT LeftForeArm
						{
							OFFSET	 0.000000	 0.000000	 0.364576
							CHANNELS 3 Zrotation Xrotation Yrotation
							JOINT LeftHand
							{
								OFFSET	 0.000000	 0.000000	 0.360812
								CHANNELS 3 Zrotation Xrotation Yrotation
								JOINT LeftHandIndex1
								{
									OFFSET	 0.000000	 0.000000	 0.086006
									CHANNELS 3 Zrotation Xrotation Yrotation
									JOINT LeftHandIndex2
									{
										OFFSET	 0.000000	 0.000000	 0.047236
										CHANNELS 3 Zrotation Xrotation Yrotation
										JOINT LeftHandIndex3
										{
											OFFSET	-0.004284	-0.000551	 0.038166
											CHANNELS 3 Zrotation Xrotation Yrotation
											End Site
											{
												OFFSET	-0.004284	-0.000551	 0.038166
											}
										}
									}
								}
							}
						}
					}
				}
				JOINT Neck
				{
					OFFSET	 0.000000	 0.000000	 0.176489
					CHANNELS 3 Zrotation Xrotation Yrotation
					JOINT Head
					{
						OFFSET	 0.000000	-0.001747	 0.077940
						CHANNELS 3 Zrotation Xrotation Yrotation
						End Site
						{
							OFFSET	 0.000000	-0.001747	 0.077940
						}
					}
				}
				JOINT RightShoulder
				{
					OFFSET	-0.080363	 0.000306	 0.159706
					CHANNELS 3 Zrotation Xrotation Yrotation
					JOINT RightArm
					{
						OFFSET	 0.000000	 0.000000	 0.164196
						CHANNELS 3 Zrotation Xrotation Yrotation
						JOINT RightForeArm
						{
							OFFSET	 0.000000	 0.000000	 0.365611
							CHANNELS 3 Zrotation Xrotation Yrotation
							JOINT RightHand
							{
								OFFSET	 0.000000	 0.000000	 0.360648
								CHANNELS 3 Zrotation Xrotation Yrotation
								JOINT RightHandIndex1
								{
									OFFSET	 0.000000	 0.000000	 0.069977
									CHANNELS 3 Zrotation Xrotation Yrotation
									JOINT RightHandIndex2
									{
										OFFSET	 0.000000	 0.000000	 0.052305
										CHANNELS 3 Zrotation Xrotation Yrotation
										JOINT RightHandIndex3
										{
											OFFSET	 0.009002	-0.000782	 0.042196
											CHANNELS 3 Zrotation Xrotation Yrotation
											End Site
											{
												OFFSET	 0.009002	-0.000782	 0.042196
											}
										}
									}
								}
							}
						}
					}
				}
			}
		}
	}
}
MOTION
Frames:    5
Frame Time: 0.03333334
 0.000295	 0.019721	 1.271104	-0.002945	 0.003760	 0.174030	-11.320350	-1.848491	 179.547000	 1.463914	-12.684170	-0.741878	-4.385550	 71.885490	-2.014437	-2.385833	 28.452760	 0.000004	 11.162920	-1.950523	-179.781400	-1.455798	-12.286660	 0.704691	 4.212080	 71.504980	 2.000049	 2.384658	 28.388730	 0.000004	-4.276993	 2.664749	 0.293241	-2.158091	 3.866248	-0.796039	 6.532695	-4.755865	 1.423158	-91.776130	 78.527470	 179.999900	 68.013860	 43.812830	-52.708450	-7.603751	 5.031761	-12.689900	-30.168800	-10.335950	-4.421647	-2.635965	 4.993658	 6.788941	-5.165319	 0.784187	 3.516649	-5.225038	 0.466231	 0.424329	-0.000002	-3.783157	-0.089647	 6.349294	 4.510679	-0.250326	 89.782100	 78.203890	 180.000000	-64.722280	 42.147950	 56.275420	 7.399454	 4.778621	 11.066820	 30.315060	-11.199300	 9.012559	 6.112037	 4.509576	-0.364401	 4.968462	 1.518543	-9.347576	 5.168945	 0.703820	 2.021906
 0.000296	 0.019723	 1.271100	-0.002757	 0.004105	 0.174430	-11.369540	-1.858245	 179.551000	 1.463637	-12.705210	-0.743153	-4.388569	 71.897530	-2.011142	-2.385833	 28.452760	 0.000004	 11.212020	-1.960254	-179.786000	-1.455542	-12.306980	 0.705894	 4.215785	 71.516620	 1.996341	 2.384658	 28.388730	 0.000004	-4.258785	 2.625907	 0.286972	-2.151002	 4.000777	-0.783531	 6.510427	-4.930459	 1.429844	-91.776130	 78.527430	 180.000000	 68.053110	 43.845530	-52.660760	-7.597373	 5.038874	-12.708250	-30.176940	-10.439060	-4.423120	-2.635965	 4.993658	 6.788941	-5.165319	 0.784187	 3.516649	-5.225038	 0.466231	 0.424329	-0.000002	-3.783157	-0.089647	 6.320540	 4.432150	-0.244847	 89.782160	 78.203890	 179.999900	-64.688130	 41.987350	 56.456240	 7.130227	 4.708327	 11.048440	 30.290430	-11.467260	 8.919116	 6.112037	 4.509576	-0.364401	 4.968462	 1.518543	-9.347576	 5.168945	 0.703820	 2.021906
 0.000296	 0.019728	 1.271110	-0.002378	 0.004765	 0.174352	-11.460600	-1.875307	 179.559200	 1.463148	-12.741800	-0.745364	-4.393805	 71.918660	-2.005352	-2.385833	 28.452760	 0.000004	 11.303060	-1.978632	-179.793900	-1.455058	-12.345590	 0.708177	 4.222790	 71.538620	 1.989453	 2.384658	 28.388730	 0.000004	-4.207273	 2.554410	 0.274757	-2.128907	 4.248314	-0.757131	 6.441844	-5.253640	 1.435721	-91.776150	 78.527470	 180.000000	 68.113600	 43.912270	-52.562850	-7.583273	 5.048703	-12.733600	-30.195040	-10.668970	-4.426417	-2.635965	 4.993658	 6.788941	-5.165319	 0.784187	 3.516649	-5.225038	 0.466231	 0.424329	-0.000002	-3.783157	-0.089647	 6.240805	 4.290736	-0.234032	 89.782040	 78.203900	-180.000000	-64.675090	 41.451260	 57.171430	 6.491142	 4.412874	 10.697280	 30.421800	-12.193810	 8.648916	 6.112037	 4.509576	-0.364401	 4.968462	 1.518543	-9.347576	 5.168945	 0.703820	 2.021906
 0.000294	 0.019734	 1.271141	-0.001990	 0.005403	 0.173139	-11.547300	-1.890423	 179.567900	 1.462722	-12.773800	-0.747298	-4.398221	 71.937320	-2.000299	-2.385833	 28.452760	 0.000004	 11.389990	-1.996745	-179.800400	-1.454568	-12.384050	 0.710454	 4.229716	 71.560460	 1.982746	 2.384658	 28.388730	 0.000004	-4.136763	 2.487003	 0.262674	-2.096975	 4.481637	-0.728481	 6.343376	-5.560518	 1.433221	-91.776180	 78.527450	 180.000000	 68.153250	 43.981240	-52.452510	-7.567417	 5.054644	-12.748910	-30.216040	-10.935630	-4.430367	-2.635965	 4.993658	 6.788941	-5.165319	 0.784187	 3.516649	-5.225038	 0.466231	 0.424329	-0.000002	-3.783157	-0.089647	 6.132952	 4.161160	-0.223029	 89.782170	 78.203890	 179.999900	-64.477460	 40.857960	 58.157570	 5.715221	 3.983880	 10.060180	 30.573830	-12.992170	 8.363279	 6.112037	 4.509576	-0.364401	 4.968462	 1.518543	-9.347576	 5.168945	 0.703820	 2.021906
 0.000290	 0.019742	 1.271198	-0.001541	 0.006113	 0.170464	-11.646450	-1.906320	 179.578900	 1.462276	-12.807030	-0.749313	-4.402730	 71.956950	-1.994963	-2.385833	 28.452760	 0.000004	 11.489690	-2.018116	-179.806700	-1.453983	-12.429910	 0.713171	 4.237862	 71.586370	 1.974956	 2.384658	 28.388730	 0.000004	-4.030582	 2.411173	 0.248433	-2.047336	 4.744197	-0.691750	 6.190944	-5.908543	 1.420041	-91.776190	 78.527450	-180.000000	 68.170190	 44.062840	-52.295640	-7.546401	 5.057796	-12.756990	-30.244730	-11.298860	-4.435905	-2.635965	 4.993658	 6.788941	-5.165319	 0.784187	 3.516649	-5.225038	 0.466231	 0.424329	-0.000002	-3.783157	-0.089647	 5.971618	 4.019524	-0.209755	 89.782060	 78.203900	-180.000000	-63.797360	 39.979080	 59.255200	 4.538848	 3.595695	 9.668535	 30.507520	-14.044260	 7.899405	 6.112037	 4.509576	-0.364401	 4.968462	 1.518543	-9.347576	 5.168945	 0.703820	 2.021906
